<svg xmlns="http://www.w3.org/2000/svg" width="479" height="557" viewBox="0 0 479 556"><path d="M61.766 341.387h96.75v44.011H3.738V194.066h109.746l25.672 44.004h-77.39v31.575h69.964v40.171H61.766Zm199.757-147.32-32.859 62.437-32.797-62.438h-64.14l67.582 115.75v75.582h57.859v-75.582l67.68-115.75ZM23.605 478.57H3.738v-46.566h20.07c9.29 0 14.622 4.418 14.622 12.137 0 3.851-2.137 7.472-5.364 9.195 2.446 1.059 6.965 3.887 6.965 10.348 0 9.32-6.14 14.886-16.426 14.886m7.176-14.543c0-4.379-2.402-6.597-7.148-6.597H12.484v13.257h11.149c4.543 0 7.148-2.425 7.148-6.66M29.31 444.91c0-3.367-2.032-5.012-6.211-5.012H12.48v9.946h11.083c4.75 0 5.746-2.684 5.746-4.934m29.718 34.383c3.368 0 6.13-1.156 8.223-3.445v2.722h8.496v-34.015H67.25v18.789c0 5.476-2.152 8.254-6.395 8.254-4.316 0-6.324-2.641-6.324-8.309v-18.734h-8.5v19.222c0 5.793 1.692 15.516 12.996 15.516m116.637-19.523c0-5.399 2.254-8.254 6.524-8.254 4.226 0 6.195 2.64 6.195 8.308v18.746h8.492v-19.234c0-10.156-4.355-15.52-12.594-15.52-3.504 0-6.535 1.278-8.617 3.602v-2.863h-8.5v34.015h8.5Zm-92.281 18.8h8.5v-34.015h-8.5Zm16.066 0h8.5v-48.164l-8.5 4.203Zm35.528-43.96 8.484-4.2v48.16h-8.484v-2.601c-2.278 2.273-4.95 3.324-7.805 3.324-8.328 0-13.305-6.758-13.305-18.078 0-10.727 5.164-17.39 13.48-17.39 2.891 0 5.56 1 7.63 3.12Zm0 33.593V454.84c-.997-1.442-2.903-3.317-6.09-3.317-2.903 0-6.364 1.645-6.364 9.497 0 8.707 3.52 10.535 6.477 10.535 3.152 0 4.715-1.73 5.977-3.352m198.816-6.988c0 11.488-4.852 18.078-13.324 18.078-3.02 0-5.707-1.121-7.809-3.27v2.547h-8.488V435.47l8.488-4.188v15.7c2.164-1.981 4.98-3.157 7.633-3.157 8.332 0 13.5 6.664 13.5 17.39m-21.133-6.235v13.375c.918 1.098 3.035 3.2 6.223 3.2 4.195 0 6.234-3.45 6.234-10.535 0-7.004-3.308-9.497-6.41-9.497-2.496 0-4.644 1.309-6.047 3.457m-88.95-10.437h8.49v30.855c0 11.27-5.462 16.836-16.692 17.012l-.168.004-3.008-6.601.387-.012c10.984-.188 10.992-5.29 10.992-9.016v-.793c-2.188 2.18-4.816 3.29-7.809 3.29-8.343 0-13.328-6.766-13.328-18.083 0-10.722 5.18-17.387 13.508-17.387 2.887 0 5.582 1.102 7.629 3.122Zm-6.093 6.965c-2.902 0-6.363 1.648-6.363 9.492 0 8.71 3.5 10.543 6.43 10.543 3.046 0 4.675-1.613 6.027-3.36v-13.359c-.992-1.437-2.902-3.316-6.094-3.316m37.66-4.395c3.989-2.242 8.157-3.289 12.856-3.289 8.699 0 13.89 4.414 13.89 11.813v22.933h-8.492v-2.785c-2.324 2.582-5.847 3.508-8.27 3.508-5.886 0-12.757-3.14-12.757-12.012 0-8.23 7.39-11.148 13.719-11.148 2.527 0 5.343.625 7.308 1.613v-2.308c0-3.2-2.129-4.887-6.14-4.887-3.555 0-6.094.847-8.797 2.347Zm11.586 25.254c3.121 0 5.59-1.797 6.668-3.582v-4.656c-1.969-1.192-4.148-1.676-6.668-1.676-3.664 0-5.855 1.805-5.855 4.828 0 3.14 2.242 5.086 5.855 5.086m99.578 1.59c-3.226 3.586-7.609 5.336-12.14 5.336-9.899 0-16.293-6.945-16.293-17.703 0-10.29 6.484-17.766 15.414-17.766 8.765 0 14.422 6.977 14.422 17.766 0 .851-.043 1.848-.098 2.55h-21.082c.414 6.876 5.938 7.415 7.637 7.415 3.125 0 5.242-1.485 6.777-2.868Zm-6.78-15.969c-.2-3.449-1.997-7.039-6.485-7.039-3.586 0-6.188 2.883-6.39 7.04Zm88.769 15.969c-3.305 3.586-7.606 5.336-12.137 5.336-9.902 0-16.3-6.945-16.3-17.703 0-10.29 6.484-17.766 15.421-17.766 8.758 0 14.426 6.977 14.426 17.766 0 .851-.055 1.848-.102 2.55h-21.086c.414 6.876 5.934 7.415 7.641 7.415 3.125 0 5.238-1.485 6.773-2.868Zm-6.785-15.969c-.192-3.449-2-7.039-6.485-7.039-3.574 0-6.176 2.883-6.39 7.04Zm-33.372-5.562h7.735v-7.871h-7.73v-12.93l-8.497 4.2v8.73h-5.289v7.87h5.29v16.438c0 4.813 2.402 10.43 9.167 10.43 2.692 0 5.164-.547 7.145-1.566l1-7.93c-1.567.832-3.36 1.539-5.14 1.539-2.52 0-3.68-1.55-3.68-4.578Zm-15.472 17.37c-1.563.833-3.356 1.54-5.14 1.54-2.524 0-3.677-1.55-3.677-4.578v-14.332h7.254v-7.871h-7.254v-12.93l-8.496 4.2v8.73h-5.308v7.87h5.308v16.438c0 4.813 2.403 10.43 9.176 10.43 2.691 0 5.16-.547 7.137-1.566Zm85.004-23.917c-1.625-1.254-4.137-2.055-6.407-2.055-3.003 0-5.558 1.121-7.597 3.676v-2.945h-8.496v34.015h8.496v-18.433c0-5.395 1.953-7.91 6.137-7.91 2.003 0 3.921.695 5.628 1.843Zm-394.422-6.192h8.488v-8.39h-8.488Zm67.66 38.883h8.496v-34.015h-8.496Zm-.004-38.882h8.488v-8.391h-8.488Zm241.883 54.34 8.484-4.2v48.16h-8.484v-2.593c-2.281 2.265-4.953 3.32-7.809 3.32-8.332 0-13.308-6.758-13.308-18.078 0-10.727 5.168-17.395 13.48-17.395 2.895 0 5.563 1.004 7.637 3.13Zm0 33.593v-13.36c-.996-1.44-2.902-3.316-6.09-3.316-2.91 0-6.367 1.64-6.367 9.496 0 8.704 3.515 10.532 6.476 10.532 3.157 0 4.72-1.727 5.98-3.352m-286.399-22.316c-1.628-1.258-4.144-2.059-6.41-2.059-3.004 0-5.554 1.121-7.593 3.68v-2.95h-8.497v34.016h8.497v-18.43c0-5.398 1.949-7.917 6.136-7.917 2.008 0 3.918.703 5.63 1.851Zm-72.207 11.183c-.726 3.207-1.43 6.38-1.824 8.563-.508-2.63-1.433-6.317-2.043-8.559l-3.586-12.523h-7.23l-3.586 12.527c-.629 2.332-1.563 5.992-2.04 8.52-.425-2.559-1.245-6.352-1.726-8.336l-3.16-12.711H.363l9.66 33.836.055.18h7.348l3.773-13.844c.63-2.098 1.586-6.293 1.91-7.672.461 1.926 1.23 4.91 1.871 7.398l3.82 14.117h7.302l9.718-34.015h-8.398Zm44.47 4.485c0 10.293-6.579 17.77-15.638 17.77-9.058 0-15.632-7.477-15.632-17.77 0-10.297 6.574-17.77 15.632-17.77s15.637 7.473 15.637 17.77m-8.669 0c0-5.977-2.734-9.832-6.969-9.832-4.234 0-6.972 3.855-6.972 9.832 0 5.972 2.738 9.836 6.972 9.836 4.235 0 6.97-3.864 6.97-9.836m283.207-15.668c-1.629-1.258-4.14-2.059-6.41-2.059-3.004 0-5.555 1.121-7.594 3.68v-2.95h-8.5v34.016h8.5v-18.43c0-5.398 1.95-7.917 6.133-7.917 2.008 0 3.922.703 5.629 1.851Zm-72.207 11.183c-.722 3.207-1.43 6.38-1.824 8.563-.512-2.63-1.434-6.317-2.04-8.559l-3.589-12.523h-7.23l-3.582 12.527c-.637 2.332-1.563 5.992-2.043 8.52-.43-2.559-1.243-6.352-1.727-8.336l-3.16-12.711h-8.754l9.66 33.836.055.18h7.344L268 524.14c.625-2.098 1.586-6.293 1.91-7.672.461 1.926 1.23 4.91 1.875 7.398l3.82 14.117h7.301l9.715-34.015h-8.402Zm44.403 4.5c0 10.297-6.579 17.766-15.641 17.766-9.05 0-15.629-7.469-15.629-17.766 0-10.293 6.578-17.77 15.629-17.77 9.062 0 15.64 7.477 15.64 17.77m-8.668 0c0-5.976-2.739-9.832-6.973-9.832-4.23 0-6.965 3.856-6.965 9.832 0 5.973 2.734 9.832 6.965 9.832 4.234 0 6.973-3.86 6.973-9.832m-178.086-17.02h-9.82l-6.778 8.727c-.91 1.153-2.164 2.766-3.223 4.266v-27.09l-8.457 4.203v43.91h8.457v-10.191l4.493-5.598 7.234 15.79h9.394l-10.476-22.81Zm31.172 15.223c0-5.398 2.253-8.25 6.523-8.25 4.226 0 6.195 2.637 6.195 8.309v18.742h8.496v-19.23c0-10.157-4.355-15.52-12.597-15.52-3.504 0-6.532 1.274-8.618 3.602v-2.867h-8.5v34.015h8.5Zm48.046-15.226h8.489v30.855c0 11.274-5.461 16.836-16.692 17.012l-.164.004-3.008-6.598.383-.011c10.985-.192 10.992-5.293 10.992-9.016v-.793c-2.187 2.184-4.816 3.281-7.804 3.281-8.344 0-13.328-6.758-13.328-18.074 0-10.727 5.175-17.39 13.503-17.39 2.891 0 5.579 1.1 7.63 3.124Zm-6.09 6.969c-2.902 0-6.367 1.64-6.367 9.492 0 8.707 3.5 10.539 6.434 10.539 3.043 0 4.676-1.613 6.023-3.356v-13.363c-.992-1.437-2.902-3.312-6.09-3.312m-66.578 27.058h8.496v-34.015h-8.496Zm0-38.887h8.485v-8.386h-8.485Zm212.036 38.88h8.496V489.87l-8.496 4.203Zm0 0" style="stroke:none;fill-rule:evenodd;fill:#161d23;fill-opacity:1"/><path d="M382.496 0 0 138.055l382.496-66.82Zm0 0" style="stroke:none;fill-rule:evenodd;fill:#ffe600;fill-opacity:1"/></svg>